# xmcd CD database file
#
# Track frame offsets:
#	150
#	17673
#	34994
#	50724
#	65796
#	83275
#	101546
#	115671
#	133975
#	151827
#	168296
#	182437
#	196913
#	213248
#	233733
#	247482
#	260947
#	279549
#
# Disc length: 3921 seconds
#
# Revision: 2
# Processed by: cddbd v1.4b41PL1 Copyright (c) Steve Scherf et al.
# Submitted via: Feurio! 1.52 - http://www.feurio.com
#
DISCID=010f4f12
DTITLE=Westlife - Coast to Coast
DYEAR=1900
DGENRE=
TTITLE0=My Love
TTITLE1=What makes a Man
TTITLE2=I Lay My Love On You
TTITLE3=Against All Odd
TTITLE4=When You´re Looking Like That
TTITLE5=Close
TTITLE6=Somebody Needs You
TTITLE7=Angel´s Wings
TTITLE8=Soledad
TTITLE9=Puzzle Of My Heart
TTITLE10=Dreams Come True
TTITLE11=No Place That Far
TTITLE12=You Make Me Feel
TTITLE13=Close Your Eyes
TTITLE14=Loneliness Knows My Name
TTITLE15=Fragile Heart
TTITLE16=Every Little Thing I Do
TTITLE17=Nothing Is Impossible
EXTD=
EXTT0=
EXTT1=
EXTT2=
EXTT3=
EXTT4=
EXTT5=
EXTT6=
EXTT7=
EXTT8=
EXTT9=
EXTT10=
EXTT11=
EXTT12=
EXTT13=
EXTT14=
EXTT15=
EXTT16=
EXTT17=
PLAYORDER=
